<?xml version="1.0" encoding="UTF-8"?>
<svg width="173.05mm" height="43.891mm" version="1.1" viewBox="0 0 173.05 43.891" xmlns="http://www.w3.org/2000/svg">
	<defs>
		<filter id="filter835" x="-.0043344" y="-.017938" width="1.0087" height="1.0359" color-interpolation-filters="sRGB">
			<feGaussianBlur stdDeviation="1.16256"/>
		</filter>
	</defs>
	<g transform="matrix(.26458 0 0 .26458 26.606 -26.011)" fill-opacity=".6" filter="url(#filter835)" style="shape-inside:url(#rect23614);white-space:pre" aria-label="m3u8/R">
		<path d="m460.96 252.17v-137.06h40.48q16.28 0 26.18 4.84 10.12 4.84 14.74 13.64t4.62 20.68q0 7.7-3.52 15.4-3.3 7.7-9.68 13.42-6.16 5.72-14.74 7.92l31.68 61.16h-17.16l-30.36-60.5h-26.62v60.5zm15.62-74.14h26.62q14.74 0 21.34-6.38 6.6-6.6 6.6-17.38 0-6.82-2.86-12.32-2.86-5.72-9.02-9.02t-16.06-3.3h-26.62zm-110.88 83.38-12.98-6.38 68.86-149.16 13.2 6.82zm-82.06-7.04q-12.98 0-22.44-4.84-9.24-5.06-14.3-13.42t-5.06-18.48q0-7.92 3.3-15.18 3.52-7.26 9.68-13.2 6.16-6.16 14.52-9.9-6.16-3.3-11-8.14-4.62-5.06-7.26-11.22t-2.64-12.76q0-9.46 3.96-16.94 4.18-7.7 12.1-12.32 8.14-4.62 20.24-4.62 12.76 0 20.68 4.4t11.66 11.88q3.96 7.26 3.96 16.28 0 4.84-1.54 9.68t-4.4 9.24q-2.86 4.18-6.82 7.92-3.96 3.52-9.02 6.16 5.94 2.64 10.78 6.82 4.84 3.96 8.36 9.02 3.52 4.84 5.28 10.56 1.98 5.5 1.98 11.44 0 10.78-5.28 19.36-5.06 8.36-14.52 13.42-9.24 4.84-22.22 4.84zm0.44-13.86q8.58 0 14.3-3.08 5.72-3.3 8.58-8.58 3.08-5.5 3.08-12.1 0-5.06-2.2-9.68-1.98-4.84-5.94-8.8-3.74-4.18-9.24-7.48-5.28-3.3-11.88-5.28-4.84 1.98-9.24 5.28-4.18 3.08-7.26 7.26-3.08 3.96-4.84 8.58-1.76 4.4-1.76 9.46 0 6.6 3.08 12.1t9.02 9.02q5.94 3.3 14.3 3.3zm3.3-67.1q3.96-2.2 7.26-5.28 3.52-3.08 5.94-6.6 2.64-3.52 3.96-7.26 1.54-3.96 1.54-7.92 0-5.28-2.42-9.68-2.42-4.62-7.26-7.48t-12.1-2.86-11.88 2.86q-4.62 2.64-7.04 7.04-2.2 4.4-2.2 9.46t1.76 9.02q1.98 3.96 5.28 7.26 3.3 3.08 7.7 5.94t9.46 5.5zm-120.12 81.18q-5.94 0-11.22-1.76t-9.68-5.28q-4.18-3.74-7.26-9.24t-4.84-13.2q-1.54-7.7-1.54-17.38l0.22-56.1h15.4v56.1q0 9.46 1.76 16.06t4.84 10.56q3.3 3.96 7.48 5.72t8.8 1.76q5.28 0 10.12-1.98 4.84-2.2 8.58-6.38 3.96-4.18 6.16-10.78t2.2-15.62v-55.44h15.4v84.92q0 3.96 0.22 7.92 0.44 3.74 1.98 7.7h-15.18q-1.1-2.64-1.54-5.06-0.44-2.64-0.66-5.28 0-2.64 0-5.06-2.42 4.18-5.72 7.48t-7.48 5.72q-3.96 2.2-8.58 3.3-4.4 1.32-9.46 1.32zm-105.82 0q-10.78 0-20.68-3.96t-16.94-11.66l10.12-12.1 1.54-1.76 1.1 1.1q0.22 1.76 0.88 3.52 0.66 1.54 3.08 4.18 3.74 3.3 8.58 5.5 4.84 1.98 11.66 1.98 8.8 0 14.52-3.52t8.58-9.68q2.86-6.38 2.86-14.3t-2.86-13.42q-2.64-5.5-7.7-8.58-5.06-3.3-12.1-4.4-7.04-1.32-15.84-0.44v-12.32q10.56 0 17.16-2.2 6.82-2.2 10.34-5.94 3.74-3.74 5.06-8.58 1.32-5.06 1.32-10.34 0-4.62-1.54-8.36-1.32-3.74-3.96-6.38-2.42-2.64-6.16-3.96-3.52-1.54-7.92-1.54t-8.8 1.1q-4.18 0.88-8.36 3.08-3.96 2.2-7.92 5.94l-9.24-9.24q7.48-7.7 16.28-10.78 9.02-3.3 17.82-3.3 11.22 0 19.14 4.4 7.92 4.18 12.1 11.88 4.4 7.7 4.4 17.82 0 7.04-2.42 13.42-2.2 6.16-7.04 10.78t-12.1 7.04q7.7 2.42 13.64 7.26 5.94 4.62 9.24 11.44t3.3 16.28q0 10.78-4.84 20.02-4.62 9.02-13.86 14.52-9.02 5.5-22.44 5.5zm-154.44-2.42v-100.54h14.52v9.9q2.42-3.74 5.5-6.38 3.3-2.86 7.04-4.4 3.96-1.54 7.92-1.54 4.4 0 8.14 1.98 3.74 1.76 6.16 5.06 2.64 3.3 3.52 7.7 1.98-4.4 5.28-7.7 3.52-3.3 7.92-5.06 4.62-1.98 9.46-1.98 5.06 0 8.8 1.98t6.16 5.5q2.42 3.3 3.52 8.14 1.1 4.62 0.88 10.12v77.22h-14.52v-71.28q0-9.24-1.32-13.42-1.1-4.18-3.3-5.28-2.2-1.32-4.84-1.32-4.18 0-7.92 3.96-3.52 3.74-5.94 9.46-2.2 5.72-2.2 11.44v66.44h-14.74v-69.96q0-12.54-2.42-16.72-2.2-4.18-8.58-4.18-2.42 0-5.06 1.76-2.42 1.54-4.62 4.62-2.2 2.86-3.52 7.26t-1.32 10.12v67.1z"/>
	</g>
	<g transform="matrix(.26458 0 0 .26458 24.606 -28.011)" style="shape-inside:url(#rect14430);white-space:pre" aria-label="m3u8/R">
		<path d="m460.96 252.17v-137.06h40.48q16.28 0 26.18 4.84 10.12 4.84 14.74 13.64t4.62 20.68q0 7.7-3.52 15.4-3.3 7.7-9.68 13.42-6.16 5.72-14.74 7.92l31.68 61.16h-17.16l-30.36-60.5h-26.62v60.5zm15.62-74.14h26.62q14.74 0 21.34-6.38 6.6-6.6 6.6-17.38 0-6.82-2.86-12.32-2.86-5.72-9.02-9.02t-16.06-3.3h-26.62zm-110.88 83.38-12.98-6.38 68.86-149.16 13.2 6.82zm-82.06-7.04q-12.98 0-22.44-4.84-9.24-5.06-14.3-13.42t-5.06-18.48q0-7.92 3.3-15.18 3.52-7.26 9.68-13.2 6.16-6.16 14.52-9.9-6.16-3.3-11-8.14-4.62-5.06-7.26-11.22t-2.64-12.76q0-9.46 3.96-16.94 4.18-7.7 12.1-12.32 8.14-4.62 20.24-4.62 12.76 0 20.68 4.4t11.66 11.88q3.96 7.26 3.96 16.28 0 4.84-1.54 9.68t-4.4 9.24q-2.86 4.18-6.82 7.92-3.96 3.52-9.02 6.16 5.94 2.64 10.78 6.82 4.84 3.96 8.36 9.02 3.52 4.84 5.28 10.56 1.98 5.5 1.98 11.44 0 10.78-5.28 19.36-5.06 8.36-14.52 13.42-9.24 4.84-22.22 4.84zm0.44-13.86q8.58 0 14.3-3.08 5.72-3.3 8.58-8.58 3.08-5.5 3.08-12.1 0-5.06-2.2-9.68-1.98-4.84-5.94-8.8-3.74-4.18-9.24-7.48-5.28-3.3-11.88-5.28-4.84 1.98-9.24 5.28-4.18 3.08-7.26 7.26-3.08 3.96-4.84 8.58-1.76 4.4-1.76 9.46 0 6.6 3.08 12.1t9.02 9.02q5.94 3.3 14.3 3.3zm3.3-67.1q3.96-2.2 7.26-5.28 3.52-3.08 5.94-6.6 2.64-3.52 3.96-7.26 1.54-3.96 1.54-7.92 0-5.28-2.42-9.68-2.42-4.62-7.26-7.48t-12.1-2.86-11.88 2.86q-4.62 2.64-7.04 7.04-2.2 4.4-2.2 9.46t1.76 9.02q1.98 3.96 5.28 7.26 3.3 3.08 7.7 5.94t9.46 5.5zm-120.12 81.18q-5.94 0-11.22-1.76t-9.68-5.28q-4.18-3.74-7.26-9.24t-4.84-13.2q-1.54-7.7-1.54-17.38l0.22-56.1h15.4v56.1q0 9.46 1.76 16.06t4.84 10.56q3.3 3.96 7.48 5.72t8.8 1.76q5.28 0 10.12-1.98 4.84-2.2 8.58-6.38 3.96-4.18 6.16-10.78t2.2-15.62v-55.44h15.4v84.92q0 3.96 0.22 7.92 0.44 3.74 1.98 7.7h-15.18q-1.1-2.64-1.54-5.06-0.44-2.64-0.66-5.28 0-2.64 0-5.06-2.42 4.18-5.72 7.48t-7.48 5.72q-3.96 2.2-8.58 3.3-4.4 1.32-9.46 1.32zm-105.82 0q-10.78 0-20.68-3.96t-16.94-11.66l10.12-12.1 1.54-1.76 1.1 1.1q0.22 1.76 0.88 3.52 0.66 1.54 3.08 4.18 3.74 3.3 8.58 5.5 4.84 1.98 11.66 1.98 8.8 0 14.52-3.52t8.58-9.68q2.86-6.38 2.86-14.3t-2.86-13.42q-2.64-5.5-7.7-8.58-5.06-3.3-12.1-4.4-7.04-1.32-15.84-0.44v-12.32q10.56 0 17.16-2.2 6.82-2.2 10.34-5.94 3.74-3.74 5.06-8.58 1.32-5.06 1.32-10.34 0-4.62-1.54-8.36-1.32-3.74-3.96-6.38-2.42-2.64-6.16-3.96-3.52-1.54-7.92-1.54t-8.8 1.1q-4.18 0.88-8.36 3.08-3.96 2.2-7.92 5.94l-9.24-9.24q7.48-7.7 16.28-10.78 9.02-3.3 17.82-3.3 11.22 0 19.14 4.4 7.92 4.18 12.1 11.88 4.4 7.7 4.4 17.82 0 7.04-2.42 13.42-2.2 6.16-7.04 10.78t-12.1 7.04q7.7 2.42 13.64 7.26 5.94 4.62 9.24 11.44t3.3 16.28q0 10.78-4.84 20.02-4.62 9.02-13.86 14.52-9.02 5.5-22.44 5.5zm-154.44-2.42v-100.54h14.52v9.9q2.42-3.74 5.5-6.38 3.3-2.86 7.04-4.4 3.96-1.54 7.92-1.54 4.4 0 8.14 1.98 3.74 1.76 6.16 5.06 2.64 3.3 3.52 7.7 1.98-4.4 5.28-7.7 3.52-3.3 7.92-5.06 4.62-1.98 9.46-1.98 5.06 0 8.8 1.98t6.16 5.5q2.42 3.3 3.52 8.14 1.1 4.62 0.88 10.12v77.22h-14.52v-71.28q0-9.24-1.32-13.42-1.1-4.18-3.3-5.28-2.2-1.32-4.84-1.32-4.18 0-7.92 3.96-3.52 3.74-5.94 9.46-2.2 5.72-2.2 11.44v66.44h-14.74v-69.96q0-12.54-2.42-16.72-2.2-4.18-8.58-4.18-2.42 0-5.06 1.76-2.42 1.54-4.62 4.62-2.2 2.86-3.52 7.26t-1.32 10.12v67.1z" fill="#fff"/>
	</g>
</svg>
